<mxfile host="Electron" modified="2024-03-16T17:49:18.795Z" agent="Mozilla/5.0 (Windows NT 10.0; Win64; x64) AppleWebKit/537.36 (KHTML, like Gecko) draw.io/24.0.4 Chrome/120.0.6099.109 Electron/28.1.0 Safari/537.36" etag="xw0N3B_OansoTrUt_Df8" version="24.0.4" type="device">
  <diagram id="R2lEEEUBdFMjLlhIrx00" name="Page-1">
    <mxGraphModel dx="435" dy="523" grid="1" gridSize="10" guides="1" tooltips="1" connect="1" arrows="1" fold="1" page="1" pageScale="1" pageWidth="850" pageHeight="1100" math="0" shadow="0" extFonts="Permanent Marker^https://fonts.googleapis.com/css?family=Permanent+Marker">
      <root>
        <mxCell id="0" />
        <mxCell id="1" parent="0" />
        <mxCell id="JK2PKhZ8GzSykmvAxjs_-5" value="" style="edgeStyle=orthogonalEdgeStyle;rounded=0;orthogonalLoop=1;jettySize=auto;html=1;exitX=0.5;exitY=1;exitDx=0;exitDy=0;" parent="1" source="JK2PKhZ8GzSykmvAxjs_-1" target="JK2PKhZ8GzSykmvAxjs_-4" edge="1">
          <mxGeometry relative="1" as="geometry">
            <mxPoint x="90.0204081632653" y="90" as="sourcePoint" />
            <Array as="points">
              <mxPoint x="90" y="145" />
            </Array>
          </mxGeometry>
        </mxCell>
        <mxCell id="JK2PKhZ8GzSykmvAxjs_-10" style="edgeStyle=orthogonalEdgeStyle;rounded=0;orthogonalLoop=1;jettySize=auto;html=1;entryX=0;entryY=0.5;entryDx=0;entryDy=0;exitX=0.5;exitY=1;exitDx=0;exitDy=0;" parent="1" source="JK2PKhZ8GzSykmvAxjs_-1" target="JK2PKhZ8GzSykmvAxjs_-8" edge="1">
          <mxGeometry relative="1" as="geometry">
            <mxPoint x="90.0204081632653" y="90" as="sourcePoint" />
            <Array as="points">
              <mxPoint x="90" y="165" />
            </Array>
          </mxGeometry>
        </mxCell>
        <mxCell id="JK2PKhZ8GzSykmvAxjs_-13" style="edgeStyle=orthogonalEdgeStyle;rounded=0;orthogonalLoop=1;jettySize=auto;html=1;entryX=0;entryY=0.5;entryDx=0;entryDy=0;exitX=0.5;exitY=1;exitDx=0;exitDy=0;" parent="1" source="JK2PKhZ8GzSykmvAxjs_-1" target="JK2PKhZ8GzSykmvAxjs_-11" edge="1">
          <mxGeometry relative="1" as="geometry">
            <mxPoint x="90.0204081632653" y="90" as="sourcePoint" />
            <Array as="points">
              <mxPoint x="90" y="185" />
            </Array>
          </mxGeometry>
        </mxCell>
        <mxCell id="JK2PKhZ8GzSykmvAxjs_-29" style="edgeStyle=orthogonalEdgeStyle;rounded=0;orthogonalLoop=1;jettySize=auto;html=1;endArrow=doubleBlock;endFill=1;" parent="1" source="JK2PKhZ8GzSykmvAxjs_-1" target="JK2PKhZ8GzSykmvAxjs_-30" edge="1">
          <mxGeometry relative="1" as="geometry">
            <mxPoint x="240" y="90" as="targetPoint" />
          </mxGeometry>
        </mxCell>
        <mxCell id="JK2PKhZ8GzSykmvAxjs_-159" style="edgeStyle=orthogonalEdgeStyle;rounded=0;orthogonalLoop=1;jettySize=auto;html=1;entryX=0.5;entryY=0;entryDx=0;entryDy=0;endArrow=doubleBlock;endFill=1;" parent="1" source="JK2PKhZ8GzSykmvAxjs_-1" target="JK2PKhZ8GzSykmvAxjs_-156" edge="1">
          <mxGeometry relative="1" as="geometry">
            <Array as="points">
              <mxPoint x="40" y="140" />
              <mxPoint x="40" y="140" />
            </Array>
          </mxGeometry>
        </mxCell>
        <mxCell id="JK2PKhZ8GzSykmvAxjs_-1" value="Cinema" style="rounded=0;whiteSpace=wrap;html=1;" parent="1" vertex="1">
          <mxGeometry x="30" y="60" width="120" height="60" as="geometry" />
        </mxCell>
        <mxCell id="JK2PKhZ8GzSykmvAxjs_-20" style="edgeStyle=orthogonalEdgeStyle;rounded=0;orthogonalLoop=1;jettySize=auto;html=1;entryX=0;entryY=0.5;entryDx=0;entryDy=0;" parent="1" source="JK2PKhZ8GzSykmvAxjs_-2" target="JK2PKhZ8GzSykmvAxjs_-18" edge="1">
          <mxGeometry relative="1" as="geometry" />
        </mxCell>
        <mxCell id="JK2PKhZ8GzSykmvAxjs_-23" style="edgeStyle=orthogonalEdgeStyle;rounded=0;orthogonalLoop=1;jettySize=auto;html=1;entryX=0;entryY=0.5;entryDx=0;entryDy=0;" parent="1" source="JK2PKhZ8GzSykmvAxjs_-2" target="JK2PKhZ8GzSykmvAxjs_-21" edge="1">
          <mxGeometry relative="1" as="geometry" />
        </mxCell>
        <mxCell id="JK2PKhZ8GzSykmvAxjs_-31" style="edgeStyle=orthogonalEdgeStyle;rounded=0;orthogonalLoop=1;jettySize=auto;html=1;entryX=1;entryY=0.5;entryDx=0;entryDy=0;" parent="1" source="JK2PKhZ8GzSykmvAxjs_-2" target="JK2PKhZ8GzSykmvAxjs_-30" edge="1">
          <mxGeometry relative="1" as="geometry" />
        </mxCell>
        <mxCell id="JK2PKhZ8GzSykmvAxjs_-64" style="edgeStyle=orthogonalEdgeStyle;rounded=0;orthogonalLoop=1;jettySize=auto;html=1;entryX=0.5;entryY=0;entryDx=0;entryDy=0;" parent="1" source="JK2PKhZ8GzSykmvAxjs_-2" target="JK2PKhZ8GzSykmvAxjs_-62" edge="1">
          <mxGeometry relative="1" as="geometry">
            <Array as="points">
              <mxPoint x="400" y="140" />
              <mxPoint x="400" y="140" />
            </Array>
          </mxGeometry>
        </mxCell>
        <mxCell id="JK2PKhZ8GzSykmvAxjs_-2" value="Theater" style="rounded=0;whiteSpace=wrap;html=1;" parent="1" vertex="1">
          <mxGeometry x="360" y="60" width="120" height="60" as="geometry" />
        </mxCell>
        <mxCell id="JK2PKhZ8GzSykmvAxjs_-44" style="edgeStyle=orthogonalEdgeStyle;rounded=0;orthogonalLoop=1;jettySize=auto;html=1;entryX=0;entryY=0.5;entryDx=0;entryDy=0;" parent="1" source="JK2PKhZ8GzSykmvAxjs_-3" target="JK2PKhZ8GzSykmvAxjs_-37" edge="1">
          <mxGeometry relative="1" as="geometry" />
        </mxCell>
        <mxCell id="JK2PKhZ8GzSykmvAxjs_-45" style="edgeStyle=orthogonalEdgeStyle;rounded=0;orthogonalLoop=1;jettySize=auto;html=1;entryX=0;entryY=0.5;entryDx=0;entryDy=0;" parent="1" source="JK2PKhZ8GzSykmvAxjs_-3" target="JK2PKhZ8GzSykmvAxjs_-39" edge="1">
          <mxGeometry relative="1" as="geometry" />
        </mxCell>
        <mxCell id="JK2PKhZ8GzSykmvAxjs_-46" style="edgeStyle=orthogonalEdgeStyle;rounded=0;orthogonalLoop=1;jettySize=auto;html=1;entryX=0;entryY=0.5;entryDx=0;entryDy=0;" parent="1" source="JK2PKhZ8GzSykmvAxjs_-3" target="JK2PKhZ8GzSykmvAxjs_-41" edge="1">
          <mxGeometry relative="1" as="geometry" />
        </mxCell>
        <mxCell id="JK2PKhZ8GzSykmvAxjs_-51" style="edgeStyle=orthogonalEdgeStyle;rounded=0;orthogonalLoop=1;jettySize=auto;html=1;entryX=0;entryY=0.5;entryDx=0;entryDy=0;" parent="1" source="JK2PKhZ8GzSykmvAxjs_-3" target="JK2PKhZ8GzSykmvAxjs_-49" edge="1">
          <mxGeometry relative="1" as="geometry" />
        </mxCell>
        <mxCell id="JK2PKhZ8GzSykmvAxjs_-54" style="edgeStyle=orthogonalEdgeStyle;rounded=0;orthogonalLoop=1;jettySize=auto;html=1;entryX=0;entryY=0.5;entryDx=0;entryDy=0;" parent="1" source="JK2PKhZ8GzSykmvAxjs_-3" target="JK2PKhZ8GzSykmvAxjs_-52" edge="1">
          <mxGeometry relative="1" as="geometry" />
        </mxCell>
        <mxCell id="JK2PKhZ8GzSykmvAxjs_-70" style="edgeStyle=orthogonalEdgeStyle;rounded=0;orthogonalLoop=1;jettySize=auto;html=1;entryX=0;entryY=0.5;entryDx=0;entryDy=0;endArrow=doubleBlock;endFill=1;" parent="1" source="JK2PKhZ8GzSykmvAxjs_-3" target="JK2PKhZ8GzSykmvAxjs_-67" edge="1">
          <mxGeometry relative="1" as="geometry">
            <Array as="points">
              <mxPoint x="270" y="450" />
              <mxPoint x="270" y="310" />
            </Array>
          </mxGeometry>
        </mxCell>
        <mxCell id="JK2PKhZ8GzSykmvAxjs_-133" style="edgeStyle=orthogonalEdgeStyle;rounded=0;orthogonalLoop=1;jettySize=auto;html=1;entryX=0;entryY=0.5;entryDx=0;entryDy=0;endArrow=doubleBlock;endFill=1;" parent="1" source="JK2PKhZ8GzSykmvAxjs_-3" target="JK2PKhZ8GzSykmvAxjs_-130" edge="1">
          <mxGeometry relative="1" as="geometry">
            <Array as="points">
              <mxPoint x="90" y="685" />
            </Array>
          </mxGeometry>
        </mxCell>
        <mxCell id="JK2PKhZ8GzSykmvAxjs_-3" value="Movie" style="rounded=0;whiteSpace=wrap;html=1;" parent="1" vertex="1">
          <mxGeometry x="85" y="420" width="120" height="60" as="geometry" />
        </mxCell>
        <mxCell id="JK2PKhZ8GzSykmvAxjs_-4" value="" style="ellipse;whiteSpace=wrap;html=1;rounded=0;rotation=0;" parent="1" vertex="1">
          <mxGeometry x="140" y="140" width="10" height="10" as="geometry" />
        </mxCell>
        <mxCell id="JK2PKhZ8GzSykmvAxjs_-7" value="nome" style="text;html=1;align=center;verticalAlign=middle;whiteSpace=wrap;rounded=0;" parent="1" vertex="1">
          <mxGeometry x="150" y="130" width="60" height="30" as="geometry" />
        </mxCell>
        <mxCell id="JK2PKhZ8GzSykmvAxjs_-8" value="" style="ellipse;whiteSpace=wrap;html=1;rounded=0;rotation=0;" parent="1" vertex="1">
          <mxGeometry x="140" y="160" width="10" height="10" as="geometry" />
        </mxCell>
        <mxCell id="JK2PKhZ8GzSykmvAxjs_-9" value="address" style="text;html=1;align=center;verticalAlign=middle;whiteSpace=wrap;rounded=0;" parent="1" vertex="1">
          <mxGeometry x="150" y="150" width="60" height="30" as="geometry" />
        </mxCell>
        <mxCell id="JK2PKhZ8GzSykmvAxjs_-11" value="" style="ellipse;whiteSpace=wrap;html=1;rounded=0;rotation=0;" parent="1" vertex="1">
          <mxGeometry x="140" y="180" width="10" height="10" as="geometry" />
        </mxCell>
        <mxCell id="JK2PKhZ8GzSykmvAxjs_-12" value="phone" style="text;html=1;align=center;verticalAlign=middle;whiteSpace=wrap;rounded=0;" parent="1" vertex="1">
          <mxGeometry x="150" y="170" width="60" height="30" as="geometry" />
        </mxCell>
        <mxCell id="JK2PKhZ8GzSykmvAxjs_-14" value="" style="endArrow=none;html=1;rounded=0;" parent="1" edge="1">
          <mxGeometry width="50" height="50" relative="1" as="geometry">
            <mxPoint x="110" y="195" as="sourcePoint" />
            <mxPoint x="110" y="175" as="targetPoint" />
          </mxGeometry>
        </mxCell>
        <mxCell id="JK2PKhZ8GzSykmvAxjs_-15" value="" style="edgeStyle=orthogonalEdgeStyle;rounded=0;orthogonalLoop=1;jettySize=auto;html=1;exitX=0.5;exitY=1;exitDx=0;exitDy=0;" parent="1" source="JK2PKhZ8GzSykmvAxjs_-2" target="JK2PKhZ8GzSykmvAxjs_-16" edge="1">
          <mxGeometry relative="1" as="geometry">
            <mxPoint x="420" y="100" as="sourcePoint" />
            <Array as="points">
              <mxPoint x="420" y="145" />
            </Array>
          </mxGeometry>
        </mxCell>
        <mxCell id="JK2PKhZ8GzSykmvAxjs_-16" value="" style="ellipse;whiteSpace=wrap;html=1;rounded=0;rotation=0;" parent="1" vertex="1">
          <mxGeometry x="469.98" y="140" width="10" height="10" as="geometry" />
        </mxCell>
        <mxCell id="JK2PKhZ8GzSykmvAxjs_-17" value="nome" style="text;html=1;align=center;verticalAlign=middle;whiteSpace=wrap;rounded=0;" parent="1" vertex="1">
          <mxGeometry x="479.98" y="130" width="60" height="30" as="geometry" />
        </mxCell>
        <mxCell id="JK2PKhZ8GzSykmvAxjs_-18" value="" style="ellipse;whiteSpace=wrap;html=1;rounded=0;rotation=0;" parent="1" vertex="1">
          <mxGeometry x="469.98" y="160" width="10" height="10" as="geometry" />
        </mxCell>
        <mxCell id="JK2PKhZ8GzSykmvAxjs_-19" value="capacity" style="text;html=1;align=center;verticalAlign=middle;whiteSpace=wrap;rounded=0;" parent="1" vertex="1">
          <mxGeometry x="479.98" y="150" width="60" height="30" as="geometry" />
        </mxCell>
        <mxCell id="JK2PKhZ8GzSykmvAxjs_-21" value="" style="ellipse;whiteSpace=wrap;html=1;rounded=0;rotation=0;" parent="1" vertex="1">
          <mxGeometry x="469.98" y="180" width="10" height="10" as="geometry" />
        </mxCell>
        <mxCell id="JK2PKhZ8GzSykmvAxjs_-22" value="ScreenType" style="text;html=1;align=center;verticalAlign=middle;whiteSpace=wrap;rounded=0;" parent="1" vertex="1">
          <mxGeometry x="490" y="170" width="60" height="30" as="geometry" />
        </mxCell>
        <mxCell id="JK2PKhZ8GzSykmvAxjs_-24" value="" style="endArrow=none;html=1;rounded=0;" parent="1" edge="1">
          <mxGeometry width="50" height="50" relative="1" as="geometry">
            <mxPoint x="440" y="195" as="sourcePoint" />
            <mxPoint x="440" y="175" as="targetPoint" />
          </mxGeometry>
        </mxCell>
        <mxCell id="JK2PKhZ8GzSykmvAxjs_-30" value="contains" style="rhombus;whiteSpace=wrap;html=1;" parent="1" vertex="1">
          <mxGeometry x="230" y="65" width="60" height="50" as="geometry" />
        </mxCell>
        <mxCell id="JK2PKhZ8GzSykmvAxjs_-32" value="" style="endArrow=none;html=1;rounded=0;" parent="1" edge="1">
          <mxGeometry width="50" height="50" relative="1" as="geometry">
            <mxPoint x="180" y="110" as="sourcePoint" />
            <mxPoint x="180" y="70" as="targetPoint" />
          </mxGeometry>
        </mxCell>
        <mxCell id="JK2PKhZ8GzSykmvAxjs_-37" value="" style="ellipse;whiteSpace=wrap;html=1;rounded=0;rotation=0;" parent="1" vertex="1">
          <mxGeometry x="184.98000000000002" y="500" width="10" height="10" as="geometry" />
        </mxCell>
        <mxCell id="JK2PKhZ8GzSykmvAxjs_-38" value="director" style="text;html=1;align=center;verticalAlign=middle;whiteSpace=wrap;rounded=0;" parent="1" vertex="1">
          <mxGeometry x="194.98000000000002" y="490" width="60" height="30" as="geometry" />
        </mxCell>
        <mxCell id="JK2PKhZ8GzSykmvAxjs_-39" value="" style="ellipse;whiteSpace=wrap;html=1;rounded=0;rotation=0;" parent="1" vertex="1">
          <mxGeometry x="184.98000000000002" y="520" width="10" height="10" as="geometry" />
        </mxCell>
        <mxCell id="JK2PKhZ8GzSykmvAxjs_-40" value="title" style="text;html=1;align=center;verticalAlign=middle;whiteSpace=wrap;rounded=0;" parent="1" vertex="1">
          <mxGeometry x="194.98000000000002" y="510" width="60" height="30" as="geometry" />
        </mxCell>
        <mxCell id="JK2PKhZ8GzSykmvAxjs_-41" value="" style="ellipse;whiteSpace=wrap;html=1;rounded=0;rotation=0;" parent="1" vertex="1">
          <mxGeometry x="184.98000000000002" y="540" width="10" height="10" as="geometry" />
        </mxCell>
        <mxCell id="JK2PKhZ8GzSykmvAxjs_-42" value="releaseDate" style="text;html=1;align=center;verticalAlign=middle;whiteSpace=wrap;rounded=0;" parent="1" vertex="1">
          <mxGeometry x="205" y="530" width="60" height="30" as="geometry" />
        </mxCell>
        <mxCell id="JK2PKhZ8GzSykmvAxjs_-48" value="" style="endArrow=none;html=1;rounded=0;" parent="1" edge="1">
          <mxGeometry width="50" height="50" relative="1" as="geometry">
            <mxPoint x="155" y="515" as="sourcePoint" />
            <mxPoint x="155" y="495" as="targetPoint" />
          </mxGeometry>
        </mxCell>
        <mxCell id="JK2PKhZ8GzSykmvAxjs_-49" value="" style="ellipse;whiteSpace=wrap;html=1;rounded=0;rotation=0;" parent="1" vertex="1">
          <mxGeometry x="185" y="560" width="10" height="10" as="geometry" />
        </mxCell>
        <mxCell id="JK2PKhZ8GzSykmvAxjs_-50" value="durationMinutes" style="text;html=1;align=center;verticalAlign=middle;whiteSpace=wrap;rounded=0;" parent="1" vertex="1">
          <mxGeometry x="215" y="550" width="60" height="30" as="geometry" />
        </mxCell>
        <mxCell id="JK2PKhZ8GzSykmvAxjs_-52" value="" style="ellipse;whiteSpace=wrap;html=1;rounded=0;rotation=0;" parent="1" vertex="1">
          <mxGeometry x="185" y="580" width="10" height="10" as="geometry" />
        </mxCell>
        <mxCell id="JK2PKhZ8GzSykmvAxjs_-53" value="rating" style="text;html=1;align=center;verticalAlign=middle;whiteSpace=wrap;rounded=0;" parent="1" vertex="1">
          <mxGeometry x="194.98000000000002" y="570" width="60" height="30" as="geometry" />
        </mxCell>
        <mxCell id="JK2PKhZ8GzSykmvAxjs_-55" value="" style="endArrow=none;html=1;rounded=0;" parent="1" edge="1">
          <mxGeometry width="50" height="50" relative="1" as="geometry">
            <mxPoint x="155" y="555" as="sourcePoint" />
            <mxPoint x="155" y="535" as="targetPoint" />
          </mxGeometry>
        </mxCell>
        <mxCell id="JK2PKhZ8GzSykmvAxjs_-56" value="" style="endArrow=none;html=1;rounded=0;" parent="1" edge="1">
          <mxGeometry width="50" height="50" relative="1" as="geometry">
            <mxPoint x="165" y="575" as="sourcePoint" />
            <mxPoint x="165" y="555" as="targetPoint" />
          </mxGeometry>
        </mxCell>
        <mxCell id="JK2PKhZ8GzSykmvAxjs_-57" value="" style="endArrow=none;html=1;rounded=0;" parent="1" edge="1">
          <mxGeometry width="50" height="50" relative="1" as="geometry">
            <mxPoint x="155" y="595" as="sourcePoint" />
            <mxPoint x="155" y="575" as="targetPoint" />
          </mxGeometry>
        </mxCell>
        <mxCell id="JK2PKhZ8GzSykmvAxjs_-66" style="edgeStyle=orthogonalEdgeStyle;rounded=0;orthogonalLoop=1;jettySize=auto;html=1;entryX=1;entryY=0.5;entryDx=0;entryDy=0;" parent="1" source="JK2PKhZ8GzSykmvAxjs_-60" target="JK2PKhZ8GzSykmvAxjs_-62" edge="1">
          <mxGeometry relative="1" as="geometry">
            <Array as="points">
              <mxPoint x="500" y="225" />
            </Array>
          </mxGeometry>
        </mxCell>
        <mxCell id="JK2PKhZ8GzSykmvAxjs_-69" style="edgeStyle=orthogonalEdgeStyle;rounded=0;orthogonalLoop=1;jettySize=auto;html=1;entryX=1;entryY=0.5;entryDx=0;entryDy=0;" parent="1" source="JK2PKhZ8GzSykmvAxjs_-60" target="JK2PKhZ8GzSykmvAxjs_-67" edge="1">
          <mxGeometry relative="1" as="geometry" />
        </mxCell>
        <mxCell id="JK2PKhZ8GzSykmvAxjs_-84" style="edgeStyle=orthogonalEdgeStyle;rounded=0;orthogonalLoop=1;jettySize=auto;html=1;entryX=0;entryY=0.5;entryDx=0;entryDy=0;" parent="1" source="JK2PKhZ8GzSykmvAxjs_-60" target="JK2PKhZ8GzSykmvAxjs_-72" edge="1">
          <mxGeometry relative="1" as="geometry" />
        </mxCell>
        <mxCell id="JK2PKhZ8GzSykmvAxjs_-85" style="edgeStyle=orthogonalEdgeStyle;rounded=0;orthogonalLoop=1;jettySize=auto;html=1;entryX=0;entryY=0.5;entryDx=0;entryDy=0;" parent="1" source="JK2PKhZ8GzSykmvAxjs_-60" target="JK2PKhZ8GzSykmvAxjs_-73" edge="1">
          <mxGeometry relative="1" as="geometry" />
        </mxCell>
        <mxCell id="JK2PKhZ8GzSykmvAxjs_-103" value="" style="edgeStyle=orthogonalEdgeStyle;rounded=0;orthogonalLoop=1;jettySize=auto;html=1;endArrow=doubleBlock;endFill=1;" parent="1" source="JK2PKhZ8GzSykmvAxjs_-60" target="JK2PKhZ8GzSykmvAxjs_-102" edge="1">
          <mxGeometry relative="1" as="geometry">
            <Array as="points">
              <mxPoint x="610" y="310" />
              <mxPoint x="610" y="225" />
            </Array>
          </mxGeometry>
        </mxCell>
        <mxCell id="JK2PKhZ8GzSykmvAxjs_-60" value="Showtime" style="rounded=0;whiteSpace=wrap;html=1;" parent="1" vertex="1">
          <mxGeometry x="440" y="280" width="120" height="60" as="geometry" />
        </mxCell>
        <mxCell id="JK2PKhZ8GzSykmvAxjs_-62" value="to have" style="rhombus;whiteSpace=wrap;html=1;" parent="1" vertex="1">
          <mxGeometry x="370" y="200" width="60" height="50" as="geometry" />
        </mxCell>
        <mxCell id="JK2PKhZ8GzSykmvAxjs_-67" value="has" style="rhombus;whiteSpace=wrap;html=1;" parent="1" vertex="1">
          <mxGeometry x="310" y="285" width="60" height="50" as="geometry" />
        </mxCell>
        <mxCell id="JK2PKhZ8GzSykmvAxjs_-71" value="" style="endArrow=none;html=1;rounded=0;" parent="1" edge="1">
          <mxGeometry width="50" height="50" relative="1" as="geometry">
            <mxPoint x="280" y="330" as="sourcePoint" />
            <mxPoint x="280" y="290" as="targetPoint" />
          </mxGeometry>
        </mxCell>
        <mxCell id="JK2PKhZ8GzSykmvAxjs_-72" value="" style="ellipse;whiteSpace=wrap;html=1;rounded=0;rotation=0;" parent="1" vertex="1">
          <mxGeometry x="539.98" y="360" width="10" height="10" as="geometry" />
        </mxCell>
        <mxCell id="JK2PKhZ8GzSykmvAxjs_-73" value="" style="ellipse;whiteSpace=wrap;html=1;rounded=0;rotation=0;" parent="1" vertex="1">
          <mxGeometry x="539.98" y="380" width="10" height="10" as="geometry" />
        </mxCell>
        <mxCell id="JK2PKhZ8GzSykmvAxjs_-74" value="seatNumber" style="text;html=1;align=center;verticalAlign=middle;whiteSpace=wrap;rounded=0;" parent="1" vertex="1">
          <mxGeometry x="745" y="370" width="60" height="30" as="geometry" />
        </mxCell>
        <mxCell id="JK2PKhZ8GzSykmvAxjs_-76" value="purchaseDateTime" style="text;html=1;align=center;verticalAlign=middle;whiteSpace=wrap;rounded=0;" parent="1" vertex="1">
          <mxGeometry x="765" y="390" width="60" height="30" as="geometry" />
        </mxCell>
        <mxCell id="JK2PKhZ8GzSykmvAxjs_-78" value="showDateTime" style="text;html=1;align=center;verticalAlign=middle;whiteSpace=wrap;rounded=0;" parent="1" vertex="1">
          <mxGeometry x="550" y="350" width="80" height="30" as="geometry" />
        </mxCell>
        <mxCell id="JK2PKhZ8GzSykmvAxjs_-88" value="price" style="text;html=1;align=center;verticalAlign=middle;whiteSpace=wrap;rounded=0;" parent="1" vertex="1">
          <mxGeometry x="550" y="370" width="30" height="30" as="geometry" />
        </mxCell>
        <mxCell id="JK2PKhZ8GzSykmvAxjs_-95" style="edgeStyle=orthogonalEdgeStyle;rounded=0;orthogonalLoop=1;jettySize=auto;html=1;" parent="1" source="JK2PKhZ8GzSykmvAxjs_-89" target="JK2PKhZ8GzSykmvAxjs_-96" edge="1">
          <mxGeometry relative="1" as="geometry">
            <mxPoint x="690" y="390" as="targetPoint" />
            <Array as="points">
              <mxPoint x="700" y="385" />
            </Array>
          </mxGeometry>
        </mxCell>
        <mxCell id="JK2PKhZ8GzSykmvAxjs_-101" style="edgeStyle=orthogonalEdgeStyle;rounded=0;orthogonalLoop=1;jettySize=auto;html=1;entryX=0;entryY=0.5;entryDx=0;entryDy=0;" parent="1" source="JK2PKhZ8GzSykmvAxjs_-89" target="JK2PKhZ8GzSykmvAxjs_-100" edge="1">
          <mxGeometry relative="1" as="geometry" />
        </mxCell>
        <mxCell id="JK2PKhZ8GzSykmvAxjs_-104" style="edgeStyle=orthogonalEdgeStyle;rounded=0;orthogonalLoop=1;jettySize=auto;html=1;entryX=1;entryY=0.5;entryDx=0;entryDy=0;" parent="1" source="JK2PKhZ8GzSykmvAxjs_-89" target="JK2PKhZ8GzSykmvAxjs_-102" edge="1">
          <mxGeometry relative="1" as="geometry">
            <Array as="points">
              <mxPoint x="700" y="175" />
            </Array>
          </mxGeometry>
        </mxCell>
        <mxCell id="JK2PKhZ8GzSykmvAxjs_-125" style="edgeStyle=orthogonalEdgeStyle;rounded=0;orthogonalLoop=1;jettySize=auto;html=1;entryX=0.5;entryY=0;entryDx=0;entryDy=0;exitX=0.25;exitY=1;exitDx=0;exitDy=0;" parent="1" source="JK2PKhZ8GzSykmvAxjs_-89" target="JK2PKhZ8GzSykmvAxjs_-108" edge="1">
          <mxGeometry relative="1" as="geometry">
            <mxPoint x="820" y="445.0000000000001" as="sourcePoint" />
            <mxPoint x="840" y="619.9999999999999" as="targetPoint" />
            <Array as="points">
              <mxPoint x="670" y="460" />
              <mxPoint x="720" y="460" />
            </Array>
          </mxGeometry>
        </mxCell>
        <mxCell id="JK2PKhZ8GzSykmvAxjs_-89" value="Ticket" style="rounded=0;whiteSpace=wrap;html=1;" parent="1" vertex="1">
          <mxGeometry x="640" y="285" width="120" height="60" as="geometry" />
        </mxCell>
        <mxCell id="JK2PKhZ8GzSykmvAxjs_-96" value="" style="ellipse;whiteSpace=wrap;html=1;aspect=fixed;" parent="1" vertex="1">
          <mxGeometry x="725" y="380" width="10" height="10" as="geometry" />
        </mxCell>
        <mxCell id="JK2PKhZ8GzSykmvAxjs_-100" value="" style="ellipse;whiteSpace=wrap;html=1;aspect=fixed;" parent="1" vertex="1">
          <mxGeometry x="725" y="400" width="10" height="10" as="geometry" />
        </mxCell>
        <mxCell id="JK2PKhZ8GzSykmvAxjs_-102" value="request" style="rhombus;whiteSpace=wrap;html=1;rounded=0;" parent="1" vertex="1">
          <mxGeometry x="580" y="150" width="60" height="50" as="geometry" />
        </mxCell>
        <mxCell id="JK2PKhZ8GzSykmvAxjs_-117" style="edgeStyle=orthogonalEdgeStyle;rounded=0;orthogonalLoop=1;jettySize=auto;html=1;entryX=0;entryY=0.5;entryDx=0;entryDy=0;" parent="1" source="JK2PKhZ8GzSykmvAxjs_-105" target="JK2PKhZ8GzSykmvAxjs_-111" edge="1">
          <mxGeometry relative="1" as="geometry" />
        </mxCell>
        <mxCell id="JK2PKhZ8GzSykmvAxjs_-118" style="edgeStyle=orthogonalEdgeStyle;rounded=0;orthogonalLoop=1;jettySize=auto;html=1;entryX=0;entryY=0.5;entryDx=0;entryDy=0;" parent="1" source="JK2PKhZ8GzSykmvAxjs_-105" target="JK2PKhZ8GzSykmvAxjs_-112" edge="1">
          <mxGeometry relative="1" as="geometry" />
        </mxCell>
        <mxCell id="JK2PKhZ8GzSykmvAxjs_-119" style="edgeStyle=orthogonalEdgeStyle;rounded=0;orthogonalLoop=1;jettySize=auto;html=1;entryX=0;entryY=0.5;entryDx=0;entryDy=0;" parent="1" source="JK2PKhZ8GzSykmvAxjs_-105" target="JK2PKhZ8GzSykmvAxjs_-115" edge="1">
          <mxGeometry relative="1" as="geometry" />
        </mxCell>
        <mxCell id="JK2PKhZ8GzSykmvAxjs_-124" style="edgeStyle=orthogonalEdgeStyle;rounded=0;orthogonalLoop=1;jettySize=auto;html=1;entryX=0;entryY=0.5;entryDx=0;entryDy=0;" parent="1" source="JK2PKhZ8GzSykmvAxjs_-105" target="JK2PKhZ8GzSykmvAxjs_-121" edge="1">
          <mxGeometry relative="1" as="geometry" />
        </mxCell>
        <mxCell id="JK2PKhZ8GzSykmvAxjs_-128" style="edgeStyle=orthogonalEdgeStyle;rounded=0;orthogonalLoop=1;jettySize=auto;html=1;entryX=1;entryY=0.5;entryDx=0;entryDy=0;endArrow=doubleBlock;endFill=1;" parent="1" source="JK2PKhZ8GzSykmvAxjs_-105" target="JK2PKhZ8GzSykmvAxjs_-127" edge="1">
          <mxGeometry relative="1" as="geometry" />
        </mxCell>
        <mxCell id="JK2PKhZ8GzSykmvAxjs_-105" value="Customer" style="rounded=0;whiteSpace=wrap;html=1;" parent="1" vertex="1">
          <mxGeometry x="510" y="520" width="120" height="60" as="geometry" />
        </mxCell>
        <mxCell id="JK2PKhZ8GzSykmvAxjs_-110" value="" style="endArrow=none;html=1;rounded=0;" parent="1" edge="1">
          <mxGeometry width="50" height="50" relative="1" as="geometry">
            <mxPoint x="650" y="565" as="sourcePoint" />
            <mxPoint x="650" y="525" as="targetPoint" />
          </mxGeometry>
        </mxCell>
        <mxCell id="JK2PKhZ8GzSykmvAxjs_-111" value="" style="ellipse;whiteSpace=wrap;html=1;rounded=0;rotation=0;" parent="1" vertex="1">
          <mxGeometry x="610" y="610" width="10" height="10" as="geometry" />
        </mxCell>
        <mxCell id="JK2PKhZ8GzSykmvAxjs_-112" value="" style="ellipse;whiteSpace=wrap;html=1;rounded=0;rotation=0;" parent="1" vertex="1">
          <mxGeometry x="610" y="630" width="10" height="10" as="geometry" />
        </mxCell>
        <mxCell id="JK2PKhZ8GzSykmvAxjs_-113" value="firstName" style="text;html=1;align=center;verticalAlign=middle;whiteSpace=wrap;rounded=0;" parent="1" vertex="1">
          <mxGeometry x="620" y="600" width="60" height="30" as="geometry" />
        </mxCell>
        <mxCell id="JK2PKhZ8GzSykmvAxjs_-114" value="lastName" style="text;html=1;align=center;verticalAlign=middle;whiteSpace=wrap;rounded=0;" parent="1" vertex="1">
          <mxGeometry x="630" y="620" width="40" height="30" as="geometry" />
        </mxCell>
        <mxCell id="JK2PKhZ8GzSykmvAxjs_-115" value="" style="ellipse;whiteSpace=wrap;html=1;rounded=0;rotation=0;" parent="1" vertex="1">
          <mxGeometry x="610" y="650" width="10" height="10" as="geometry" />
        </mxCell>
        <mxCell id="JK2PKhZ8GzSykmvAxjs_-116" value="email" style="text;html=1;align=center;verticalAlign=middle;whiteSpace=wrap;rounded=0;" parent="1" vertex="1">
          <mxGeometry x="620" y="640" width="40" height="30" as="geometry" />
        </mxCell>
        <mxCell id="JK2PKhZ8GzSykmvAxjs_-120" value="" style="endArrow=none;html=1;rounded=0;" parent="1" edge="1">
          <mxGeometry width="50" height="50" relative="1" as="geometry">
            <mxPoint x="580" y="667.5" as="sourcePoint" />
            <mxPoint x="580" y="642.5" as="targetPoint" />
          </mxGeometry>
        </mxCell>
        <mxCell id="JK2PKhZ8GzSykmvAxjs_-121" value="" style="ellipse;whiteSpace=wrap;html=1;rounded=0;rotation=0;" parent="1" vertex="1">
          <mxGeometry x="610" y="670" width="10" height="10" as="geometry" />
        </mxCell>
        <mxCell id="JK2PKhZ8GzSykmvAxjs_-122" value="phoneNumber" style="text;html=1;align=center;verticalAlign=middle;whiteSpace=wrap;rounded=0;" parent="1" vertex="1">
          <mxGeometry x="620" y="660" width="80" height="30" as="geometry" />
        </mxCell>
        <mxCell id="JK2PKhZ8GzSykmvAxjs_-123" value="" style="endArrow=none;html=1;rounded=0;" parent="1" edge="1">
          <mxGeometry width="50" height="50" relative="1" as="geometry">
            <mxPoint x="590" y="687.5" as="sourcePoint" />
            <mxPoint x="590" y="662.5" as="targetPoint" />
          </mxGeometry>
        </mxCell>
        <mxCell id="JK2PKhZ8GzSykmvAxjs_-129" style="edgeStyle=orthogonalEdgeStyle;rounded=0;orthogonalLoop=1;jettySize=auto;html=1;" parent="1" source="JK2PKhZ8GzSykmvAxjs_-126" target="JK2PKhZ8GzSykmvAxjs_-127" edge="1">
          <mxGeometry relative="1" as="geometry" />
        </mxCell>
        <mxCell id="JK2PKhZ8GzSykmvAxjs_-131" value="" style="edgeStyle=orthogonalEdgeStyle;rounded=0;orthogonalLoop=1;jettySize=auto;html=1;" parent="1" source="JK2PKhZ8GzSykmvAxjs_-126" target="JK2PKhZ8GzSykmvAxjs_-130" edge="1">
          <mxGeometry relative="1" as="geometry">
            <Array as="points">
              <mxPoint x="300" y="685" />
              <mxPoint x="300" y="685" />
            </Array>
          </mxGeometry>
        </mxCell>
        <mxCell id="JK2PKhZ8GzSykmvAxjs_-151" style="edgeStyle=orthogonalEdgeStyle;rounded=0;orthogonalLoop=1;jettySize=auto;html=1;entryX=0;entryY=0.5;entryDx=0;entryDy=0;" parent="1" source="JK2PKhZ8GzSykmvAxjs_-126" target="JK2PKhZ8GzSykmvAxjs_-136" edge="1">
          <mxGeometry relative="1" as="geometry" />
        </mxCell>
        <mxCell id="JK2PKhZ8GzSykmvAxjs_-152" style="edgeStyle=orthogonalEdgeStyle;rounded=0;orthogonalLoop=1;jettySize=auto;html=1;entryX=0;entryY=0.5;entryDx=0;entryDy=0;" parent="1" source="JK2PKhZ8GzSykmvAxjs_-126" target="JK2PKhZ8GzSykmvAxjs_-138" edge="1">
          <mxGeometry relative="1" as="geometry" />
        </mxCell>
        <mxCell id="JK2PKhZ8GzSykmvAxjs_-153" style="edgeStyle=orthogonalEdgeStyle;rounded=0;orthogonalLoop=1;jettySize=auto;html=1;entryX=0;entryY=0.5;entryDx=0;entryDy=0;" parent="1" source="JK2PKhZ8GzSykmvAxjs_-126" target="JK2PKhZ8GzSykmvAxjs_-140" edge="1">
          <mxGeometry relative="1" as="geometry" />
        </mxCell>
        <mxCell id="JK2PKhZ8GzSykmvAxjs_-126" value="Review" style="rounded=0;whiteSpace=wrap;html=1;" parent="1" vertex="1">
          <mxGeometry x="330" y="650" width="120" height="60" as="geometry" />
        </mxCell>
        <mxCell id="JK2PKhZ8GzSykmvAxjs_-127" value="write" style="rhombus;whiteSpace=wrap;html=1;" parent="1" vertex="1">
          <mxGeometry x="360" y="525" width="60" height="50" as="geometry" />
        </mxCell>
        <mxCell id="JK2PKhZ8GzSykmvAxjs_-130" value="received" style="rhombus;whiteSpace=wrap;html=1;rounded=0;" parent="1" vertex="1">
          <mxGeometry x="159.98000000000002" y="660" width="60" height="50" as="geometry" />
        </mxCell>
        <mxCell id="JK2PKhZ8GzSykmvAxjs_-134" value="" style="endArrow=none;html=1;rounded=0;" parent="1" edge="1">
          <mxGeometry width="50" height="50" relative="1" as="geometry">
            <mxPoint x="65" y="580" as="sourcePoint" />
            <mxPoint x="115" y="580" as="targetPoint" />
          </mxGeometry>
        </mxCell>
        <mxCell id="JK2PKhZ8GzSykmvAxjs_-135" value="" style="endArrow=none;html=1;rounded=0;" parent="1" edge="1">
          <mxGeometry width="50" height="50" relative="1" as="geometry">
            <mxPoint x="480" y="570" as="sourcePoint" />
            <mxPoint x="480" y="530" as="targetPoint" />
          </mxGeometry>
        </mxCell>
        <mxCell id="JK2PKhZ8GzSykmvAxjs_-136" value="" style="ellipse;whiteSpace=wrap;html=1;rounded=0;rotation=0;" parent="1" vertex="1">
          <mxGeometry x="444.96000000000004" y="730" width="10" height="10" as="geometry" />
        </mxCell>
        <mxCell id="JK2PKhZ8GzSykmvAxjs_-137" value="reviewText" style="text;html=1;align=center;verticalAlign=middle;whiteSpace=wrap;rounded=0;" parent="1" vertex="1">
          <mxGeometry x="464.98" y="720" width="60" height="30" as="geometry" />
        </mxCell>
        <mxCell id="JK2PKhZ8GzSykmvAxjs_-138" value="" style="ellipse;whiteSpace=wrap;html=1;rounded=0;rotation=0;" parent="1" vertex="1">
          <mxGeometry x="444.96000000000004" y="750" width="10" height="10" as="geometry" />
        </mxCell>
        <mxCell id="JK2PKhZ8GzSykmvAxjs_-139" value="rating" style="text;html=1;align=center;verticalAlign=middle;whiteSpace=wrap;rounded=0;" parent="1" vertex="1">
          <mxGeometry x="454.96000000000004" y="740" width="60" height="30" as="geometry" />
        </mxCell>
        <mxCell id="JK2PKhZ8GzSykmvAxjs_-140" value="" style="ellipse;whiteSpace=wrap;html=1;rounded=0;rotation=0;" parent="1" vertex="1">
          <mxGeometry x="444.96000000000004" y="770" width="10" height="10" as="geometry" />
        </mxCell>
        <mxCell id="JK2PKhZ8GzSykmvAxjs_-141" value="reviewDate" style="text;html=1;align=center;verticalAlign=middle;whiteSpace=wrap;rounded=0;" parent="1" vertex="1">
          <mxGeometry x="464.98" y="760" width="60" height="30" as="geometry" />
        </mxCell>
        <mxCell id="JK2PKhZ8GzSykmvAxjs_-142" value="" style="endArrow=none;html=1;rounded=0;" parent="1" edge="1">
          <mxGeometry width="50" height="50" relative="1" as="geometry">
            <mxPoint x="414.98" y="745" as="sourcePoint" />
            <mxPoint x="414.98" y="725" as="targetPoint" />
          </mxGeometry>
        </mxCell>
        <mxCell id="JK2PKhZ8GzSykmvAxjs_-147" value="" style="endArrow=none;html=1;rounded=0;" parent="1" edge="1">
          <mxGeometry width="50" height="50" relative="1" as="geometry">
            <mxPoint x="430" y="765" as="sourcePoint" />
            <mxPoint x="430" y="745" as="targetPoint" />
          </mxGeometry>
        </mxCell>
        <mxCell id="JK2PKhZ8GzSykmvAxjs_-158" style="edgeStyle=orthogonalEdgeStyle;rounded=0;orthogonalLoop=1;jettySize=auto;html=1;entryX=0.5;entryY=1;entryDx=0;entryDy=0;" parent="1" source="JK2PKhZ8GzSykmvAxjs_-154" target="JK2PKhZ8GzSykmvAxjs_-156" edge="1">
          <mxGeometry relative="1" as="geometry">
            <Array as="points">
              <mxPoint x="40" y="280" />
            </Array>
          </mxGeometry>
        </mxCell>
        <mxCell id="JK2PKhZ8GzSykmvAxjs_-171" style="edgeStyle=orthogonalEdgeStyle;rounded=0;orthogonalLoop=1;jettySize=auto;html=1;entryX=0;entryY=0.5;entryDx=0;entryDy=0;" parent="1" source="JK2PKhZ8GzSykmvAxjs_-154" target="JK2PKhZ8GzSykmvAxjs_-163" edge="1">
          <mxGeometry relative="1" as="geometry" />
        </mxCell>
        <mxCell id="JK2PKhZ8GzSykmvAxjs_-172" style="edgeStyle=orthogonalEdgeStyle;rounded=0;orthogonalLoop=1;jettySize=auto;html=1;entryX=0;entryY=0.5;entryDx=0;entryDy=0;" parent="1" source="JK2PKhZ8GzSykmvAxjs_-154" target="JK2PKhZ8GzSykmvAxjs_-164" edge="1">
          <mxGeometry relative="1" as="geometry" />
        </mxCell>
        <mxCell id="JK2PKhZ8GzSykmvAxjs_-173" style="edgeStyle=orthogonalEdgeStyle;rounded=0;orthogonalLoop=1;jettySize=auto;html=1;entryX=0;entryY=0.5;entryDx=0;entryDy=0;" parent="1" source="JK2PKhZ8GzSykmvAxjs_-154" target="JK2PKhZ8GzSykmvAxjs_-166" edge="1">
          <mxGeometry relative="1" as="geometry" />
        </mxCell>
        <mxCell id="JK2PKhZ8GzSykmvAxjs_-182" style="edgeStyle=orthogonalEdgeStyle;rounded=0;orthogonalLoop=1;jettySize=auto;html=1;entryX=0;entryY=0.5;entryDx=0;entryDy=0;" parent="1" source="JK2PKhZ8GzSykmvAxjs_-154" target="JK2PKhZ8GzSykmvAxjs_-180" edge="1">
          <mxGeometry relative="1" as="geometry" />
        </mxCell>
        <mxCell id="JK2PKhZ8GzSykmvAxjs_-154" value="Employee" style="rounded=0;whiteSpace=wrap;html=1;" parent="1" vertex="1">
          <mxGeometry x="85" y="225" width="120" height="60" as="geometry" />
        </mxCell>
        <mxCell id="JK2PKhZ8GzSykmvAxjs_-156" value="work" style="rhombus;whiteSpace=wrap;html=1;" parent="1" vertex="1">
          <mxGeometry x="10" y="210" width="60" height="50" as="geometry" />
        </mxCell>
        <mxCell id="JK2PKhZ8GzSykmvAxjs_-160" value="" style="endArrow=none;html=1;rounded=0;" parent="1" edge="1">
          <mxGeometry width="50" height="50" relative="1" as="geometry">
            <mxPoint x="60" y="180" as="sourcePoint" />
            <mxPoint x="20" y="180" as="targetPoint" />
          </mxGeometry>
        </mxCell>
        <mxCell id="JK2PKhZ8GzSykmvAxjs_-161" value="" style="edgeStyle=orthogonalEdgeStyle;rounded=0;orthogonalLoop=1;jettySize=auto;html=1;endArrow=doubleBlock;endFill=1;" parent="1" source="JK2PKhZ8GzSykmvAxjs_-105" target="JK2PKhZ8GzSykmvAxjs_-108" edge="1">
          <mxGeometry relative="1" as="geometry">
            <mxPoint x="750" y="550" as="targetPoint" />
            <mxPoint x="630" y="550" as="sourcePoint" />
            <Array as="points">
              <mxPoint x="640" y="545" />
              <mxPoint x="640" y="545" />
            </Array>
          </mxGeometry>
        </mxCell>
        <mxCell id="JK2PKhZ8GzSykmvAxjs_-108" value="buy" style="rhombus;whiteSpace=wrap;html=1;rounded=0;" parent="1" vertex="1">
          <mxGeometry x="690" y="520" width="60" height="50" as="geometry" />
        </mxCell>
        <mxCell id="JK2PKhZ8GzSykmvAxjs_-162" value="" style="endArrow=none;html=1;rounded=0;" parent="1" edge="1">
          <mxGeometry width="50" height="50" relative="1" as="geometry">
            <mxPoint x="390" y="170" as="sourcePoint" />
            <mxPoint x="410" y="170" as="targetPoint" />
          </mxGeometry>
        </mxCell>
        <mxCell id="JK2PKhZ8GzSykmvAxjs_-163" value="" style="ellipse;whiteSpace=wrap;html=1;rounded=0;rotation=0;" parent="1" vertex="1">
          <mxGeometry x="180" y="320" width="10" height="10" as="geometry" />
        </mxCell>
        <mxCell id="JK2PKhZ8GzSykmvAxjs_-164" value="" style="ellipse;whiteSpace=wrap;html=1;rounded=0;rotation=0;" parent="1" vertex="1">
          <mxGeometry x="180" y="340" width="10" height="10" as="geometry" />
        </mxCell>
        <mxCell id="JK2PKhZ8GzSykmvAxjs_-165" value="lastName" style="text;html=1;align=center;verticalAlign=middle;whiteSpace=wrap;rounded=0;" parent="1" vertex="1">
          <mxGeometry x="190" y="330" width="60" height="30" as="geometry" />
        </mxCell>
        <mxCell id="JK2PKhZ8GzSykmvAxjs_-166" value="" style="ellipse;whiteSpace=wrap;html=1;rounded=0;rotation=0;" parent="1" vertex="1">
          <mxGeometry x="180" y="360" width="10" height="10" as="geometry" />
        </mxCell>
        <mxCell id="JK2PKhZ8GzSykmvAxjs_-167" value="position" style="text;html=1;align=center;verticalAlign=middle;whiteSpace=wrap;rounded=0;" parent="1" vertex="1">
          <mxGeometry x="185" y="350" width="60" height="30" as="geometry" />
        </mxCell>
        <mxCell id="JK2PKhZ8GzSykmvAxjs_-168" value="" style="endArrow=none;html=1;rounded=0;" parent="1" edge="1">
          <mxGeometry width="50" height="50" relative="1" as="geometry">
            <mxPoint x="150" y="375" as="sourcePoint" />
            <mxPoint x="150" y="355" as="targetPoint" />
          </mxGeometry>
        </mxCell>
        <mxCell id="JK2PKhZ8GzSykmvAxjs_-169" value="firstName" style="text;html=1;align=center;verticalAlign=middle;whiteSpace=wrap;rounded=0;" parent="1" vertex="1">
          <mxGeometry x="190" y="310" width="60" height="30" as="geometry" />
        </mxCell>
        <mxCell id="JK2PKhZ8GzSykmvAxjs_-180" value="" style="ellipse;whiteSpace=wrap;html=1;rounded=0;rotation=0;" parent="1" vertex="1">
          <mxGeometry x="180" y="380" width="10" height="10" as="geometry" />
        </mxCell>
        <mxCell id="JK2PKhZ8GzSykmvAxjs_-181" value="hireDate" style="text;html=1;align=center;verticalAlign=middle;whiteSpace=wrap;rounded=0;" parent="1" vertex="1">
          <mxGeometry x="190" y="370" width="60" height="30" as="geometry" />
        </mxCell>
        <mxCell id="JK2PKhZ8GzSykmvAxjs_-183" value="" style="endArrow=none;html=1;rounded=0;" parent="1" edge="1">
          <mxGeometry width="50" height="50" relative="1" as="geometry">
            <mxPoint x="159.98" y="395" as="sourcePoint" />
            <mxPoint x="159.98" y="375" as="targetPoint" />
          </mxGeometry>
        </mxCell>
      </root>
    </mxGraphModel>
  </diagram>
</mxfile>
